<?xml version="1.0" encoding="UTF-8"?>
<svg width="400" height="300" viewBox="0 0 400 300" xmlns="http://www.w3.org/2000/svg">
  <!-- Bottle -->
  <g transform="translate(150,50)">
    <!-- Bottle body -->
    <path d="M40 50 C40 30 60 30 60 50 L60 200 C60 220 40 220 40 200 Z" fill="#facc15"/>
    
    <!-- Bottle neck -->
    <path d="M45 30 L55 30 L55 50 L45 50 Z" fill="#facc15"/>
    
    <!-- Bottle cap -->
    <rect x="43" y="20" width="14" height="10" fill="#fbbf24"/>
    
    <!-- Label -->
    <rect x="43" y="80" width="14" height="40" fill="#fef3c7"/>
    
    <!-- Bubbles -->
    <circle cx="45" cy="100" r="2" fill="#fef3c7"/>
    <circle cx="50" cy="120" r="3" fill="#fef3c7"/>
    <circle cx="48" cy="90" r="2" fill="#fef3c7"/>
  </g>
  
  <!-- Sun -->
  <circle cx="300" cy="60" r="30" fill="#fbbf24"/>
  <g transform="translate(300,60)">
    <path d="M0 -40 L0 -50 M28 -28 L35 -35 M40 0 L50 0 M28 28 L35 35 M0 40 L0 50 M-28 28 L-35 35 M-40 0 L-50 0 M-28 -28 L-35 -35" 
          stroke="#fbbf24" stroke-width="4"/>
  </g>
</svg> 