<?xml version="1.0" encoding="UTF-8"?>
<svg width="400" height="300" viewBox="0 0 400 300" xmlns="http://www.w3.org/2000/svg">
  <!-- Mountains with snow -->
  <path d="M0 300 L100 150 L200 250 L300 100 L400 200 L400 300 Z" fill="#e2e8f0"/>
  <path d="M100 150 L150 200 L200 250" stroke="#f8fafc" stroke-width="15" fill="none"/>
  <path d="M300 100 L350 150 L400 200" stroke="#f8fafc" stroke-width="15" fill="none"/>
  
  <!-- Ski tracks -->
  <path d="M50 280 Q150 250 250 270 T400 250" 
        stroke="#94a3b8" 
        stroke-width="4" 
        fill="none"
        stroke-dasharray="10 5"/>
  
  <!-- Musical notes -->
  <g transform="translate(150,100)">
    <path d="M0 0 L0 30 L10 30 A5 5 0 1 1 10 40" fill="#1e293b"/>
    <circle cx="0" cy="0" r="6" fill="#1e293b"/>
  </g>
  <g transform="translate(180,80)">
    <path d="M0 0 L0 30 L10 30 A5 5 0 1 1 10 40" fill="#1e293b"/>
    <circle cx="0" cy="0" r="6" fill="#1e293b"/>
  </g>
</svg> 